<svg width="48" height="15" viewBox="0 0 48 15" fill="none" xmlns="http://www.w3.org/2000/svg">
<path d="M4.03523 11.25C3.27523 11.25 2.59023 11.08 1.98023 10.74C1.37023 10.39 0.885234 9.905 0.525234 9.285C0.175234 8.665 0.000234403 7.935 0.000234403 7.095C0.000234403 6.245 0.175234 5.51 0.525234 4.89C0.885234 4.27 1.37023 3.79 1.98023 3.45C2.59023 3.11 3.27523 2.94 4.03523 2.94C4.71523 2.94 5.31023 3.09 5.82023 3.39C6.33023 3.69 6.72523 4.145 7.00524 4.755C7.28524 5.365 7.42524 6.145 7.42524 7.095C7.42524 8.035 7.29023 8.815 7.02023 9.435C6.75023 10.045 6.36023 10.5 5.85023 10.8C5.35023 11.1 4.74523 11.25 4.03523 11.25ZM4.44023 9.33C4.82023 9.33 5.16523 9.24 5.47523 9.06C5.78523 8.88 6.03023 8.625 6.21023 8.295C6.40023 7.955 6.49523 7.555 6.49523 7.095C6.49523 6.625 6.40023 6.225 6.21023 5.895C6.03023 5.565 5.78523 5.31 5.47523 5.13C5.16523 4.95 4.82023 4.86 4.44023 4.86C4.05023 4.86 3.70023 4.95 3.39023 5.13C3.08023 5.31 2.83023 5.565 2.64023 5.895C2.46023 6.225 2.37023 6.625 2.37023 7.095C2.37023 7.555 2.46023 7.955 2.64023 8.295C2.83023 8.625 3.08023 8.88 3.39023 9.06C3.70023 9.24 4.05023 9.33 4.44023 9.33ZM6.55523 11.13V9.48L6.60023 7.08L6.45023 4.695V4.23193e-06H8.79023V11.13H6.55523ZM10.956 11.13V3.06H13.191V5.34L12.876 4.68C13.116 4.11 13.501 3.68 14.031 3.39C14.561 3.09 15.206 2.94 15.966 2.94V5.1C15.866 5.09 15.776 5.085 15.696 5.085C15.616 5.075 15.531 5.07 15.441 5.07C14.801 5.07 14.281 5.255 13.881 5.625C13.491 5.985 13.296 6.55 13.296 7.32V11.13H10.956ZM31.8979 11.25C31.2179 11.25 30.6229 11.1 30.1129 10.8C29.6029 10.5 29.2029 10.045 28.9129 9.435C28.6329 8.815 28.4929 8.035 28.4929 7.095C28.4929 6.145 28.6279 5.365 28.8979 4.755C29.1679 4.145 29.5579 3.69 30.0679 3.39C30.5779 3.09 31.1879 2.94 31.8979 2.94C32.6579 2.94 33.3379 3.115 33.9379 3.465C34.5479 3.805 35.0279 4.285 35.3779 4.905C35.7379 5.525 35.9179 6.255 35.9179 7.095C35.9179 7.945 35.7379 8.68 35.3779 9.3C35.0279 9.92 34.5479 10.4 33.9379 10.74C33.3379 11.08 32.6579 11.25 31.8979 11.25ZM27.1279 14.04V3.06H29.3629V4.71L29.3179 7.11L29.4679 9.495V14.04H27.1279ZM31.4929 9.33C31.8829 9.33 32.2279 9.24 32.5279 9.06C32.8379 8.88 33.0829 8.625 33.2629 8.295C33.4529 7.955 33.5479 7.555 33.5479 7.095C33.5479 6.625 33.4529 6.225 33.2629 5.895C33.0829 5.565 32.8379 5.31 32.5279 5.13C32.2279 4.95 31.8829 4.86 31.4929 4.86C31.1029 4.86 30.7529 4.95 30.4429 5.13C30.1329 5.31 29.8879 5.565 29.7079 5.895C29.5279 6.225 29.4379 6.625 29.4379 7.095C29.4379 7.555 29.5279 7.955 29.7079 8.295C29.8879 8.625 30.1329 8.88 30.4429 9.06C30.7529 9.24 31.1029 9.33 31.4929 9.33ZM40.1993 11.25C39.5093 11.25 38.8443 11.17 38.2043 11.01C37.5743 10.84 37.0743 10.63 36.7043 10.38L37.4843 8.7C37.8543 8.93 38.2893 9.12 38.7893 9.27C39.2993 9.41 39.7993 9.48 40.2893 9.48C40.8293 9.48 41.2093 9.415 41.4293 9.285C41.6593 9.155 41.7743 8.975 41.7743 8.745C41.7743 8.555 41.6843 8.415 41.5043 8.325C41.3343 8.225 41.1043 8.15 40.8143 8.1C40.5243 8.05 40.2043 8 39.8543 7.95C39.5143 7.9 39.1693 7.835 38.8193 7.755C38.4693 7.665 38.1493 7.535 37.8593 7.365C37.5693 7.195 37.3343 6.965 37.1543 6.675C36.9843 6.385 36.8993 6.01 36.8993 5.55C36.8993 5.04 37.0443 4.59 37.3343 4.2C37.6343 3.81 38.0643 3.505 38.6243 3.285C39.1843 3.055 39.8543 2.94 40.6343 2.94C41.1843 2.94 41.7443 3 42.3143 3.12C42.8843 3.24 43.3593 3.415 43.7393 3.645L42.9593 5.31C42.5693 5.08 42.1743 4.925 41.7743 4.845C41.3843 4.755 41.0043 4.71 40.6343 4.71C40.1143 4.71 39.7343 4.78 39.4943 4.92C39.2543 5.06 39.1343 5.24 39.1343 5.46C39.1343 5.66 39.2193 5.81 39.3893 5.91C39.5693 6.01 39.8043 6.09 40.0943 6.15C40.3843 6.21 40.6993 6.265 41.0393 6.315C41.3893 6.355 41.7393 6.42 42.0893 6.51C42.4393 6.6 42.7543 6.73 43.0343 6.9C43.3243 7.06 43.5593 7.285 43.7393 7.575C43.9193 7.855 44.0093 8.225 44.0093 8.685C44.0093 9.185 43.8593 9.63 43.5593 10.02C43.2593 10.4 42.8243 10.7 42.2543 10.92C41.6943 11.14 41.0093 11.25 40.1993 11.25Z" fill="#12284B"/>
<path d="M21.1388 11.25C20.2788 11.25 19.5138 11.07 18.8438 10.71C18.1838 10.35 17.6588 9.86 17.2688 9.24C16.8888 8.61 16.6988 7.895 16.6988 7.095C16.6988 6.285 16.8888 5.57 17.2688 4.95C17.6588 4.32 18.1838 3.83 18.8438 3.48C19.5138 3.12 20.2788 2.94 21.1388 2.94C21.9888 2.94 22.7488 3.12 23.4188 3.48C24.0888 3.83 24.6138 4.315 24.9938 4.935C25.3738 5.555 25.5638 6.275 25.5638 7.095C25.5638 7.895 25.3738 8.61 24.9938 9.24C24.6138 9.86 24.0888 10.35 23.4188 10.71C22.7488 11.07 21.9888 11.25 21.1388 11.25ZM21.1388 9.33C21.5288 9.33 21.8788 9.24 22.1888 9.06C22.4988 8.88 22.7438 8.625 22.9238 8.295C23.1038 7.955 23.1938 7.555 23.1938 7.095C23.1938 6.625 23.1038 6.225 22.9238 5.895C22.7438 5.565 22.4988 5.31 22.1888 5.13C21.8788 4.95 21.5288 4.86 21.1388 4.86C20.7488 4.86 20.3988 4.95 20.0888 5.13C19.7788 5.31 19.5288 5.565 19.3388 5.895C19.1588 6.225 19.0688 6.625 19.0688 7.095C19.0688 7.555 19.1588 7.955 19.3388 8.295C19.5288 8.625 19.7788 8.88 20.0888 9.06C20.3988 9.24 20.7488 9.33 21.1388 9.33ZM46.338 11.25C45.938 11.25 45.593 11.115 45.303 10.845C45.023 10.565 44.883 10.21 44.883 9.78C44.883 9.35 45.023 9.005 45.303 8.745C45.593 8.475 45.938 8.34 46.338 8.34C46.748 8.34 47.093 8.475 47.373 8.745C47.653 9.005 47.793 9.35 47.793 9.78C47.793 10.21 47.653 10.565 47.373 10.845C47.093 11.115 46.748 11.25 46.338 11.25Z" fill="#0055A0"/>
</svg>
